<?xml version="1.0" standalone="no"?>
<!DOCTYPE svg PUBLIC "-//W3C//DTD SVG 1.1//EN" "http://www.w3.org/Graphics/SVG/1.1/DTD/svg11.dtd" >
<svg xmlns="http://www.w3.org/2000/svg" xmlns:xlink="http://www.w3.org/1999/xlink" version="1.1">
<metadata></metadata>
<defs>
<font id="gasaltthin" horiz-adv-x="802" >
<font-face units-per-em="2048" ascent="1365" descent="-683" />
<missing-glyph horiz-adv-x="529" />
<glyph horiz-adv-x="1044" />
<glyph horiz-adv-x="1044" />
<glyph unicode="&#xd;" horiz-adv-x="682" />
<glyph unicode=" "  horiz-adv-x="529" />
<glyph unicode="&#x09;" horiz-adv-x="529" />
<glyph unicode="&#xa0;" horiz-adv-x="529" />
<glyph unicode="!" horiz-adv-x="199" d="M51 0v29h29v-29h-29zM51 143v818h29v-818h-29z" />
<glyph unicode="&#x22;" horiz-adv-x="216" d="M10 905v27q0 12 8 20.5t20 8.5v-14q-14 0 -14 -15h14v-14v-13h-28zM68 905v27q0 12 8.5 20.5t20.5 8.5v-14q-15 0 -15 -15h15v-14v-13h-29z" />
<glyph unicode="#" horiz-adv-x="1232" d="M10 229v29h246l159 447h-236v27h246l82 229h31l-82 -229h367l80 229h31l-82 -229h259v-27h-270l-158 -447h259v-29h-270l-81 -229h-30l81 229h-366l-81 -229h-31l82 229h-236zM287 258h365l160 447h-367z" />
<glyph unicode="$" horiz-adv-x="923" d="M10 631.5q0 76.5 54 131t131 54.5h204v144h28v-144h375v-29h-375v-314h191q77 0 130.5 -53.5t53.5 -130.5t-53.5 -130.5t-130.5 -53.5h-191v-106h-28v106h-387v29h387v310h-204q-77 0 -131 55t-54 131.5zM38 631.5q0 -64.5 46 -111t111 -46.5h204v314h-204 q-65 0 -111 -46t-46 -110.5zM427 135h191q65 0 110 45t45 110t-45 110t-110 45h-191v-310z" />
<glyph unicode="%" horiz-adv-x="1063" d="M10 765.5q0 81.5 57.5 138.5t137.5 57t137 -57t57 -138.5t-57 -138.5t-137 -57t-137.5 57t-57.5 138.5zM38 765.5q0 -69.5 49.5 -118t117.5 -48.5t117.5 48.5t49.5 118t-49.5 118t-117.5 48.5t-117.5 -48.5t-49.5 -118zM299 0l343 961h29l-342 -961h-30zM553 195 q0 81 57 138.5t137.5 57.5t138.5 -57.5t58 -138.5t-58 -138t-138.5 -57t-137.5 57t-57 138zM580 195.5q0 -69.5 49.5 -118t118.5 -48.5t118 48.5t49 118t-49 118t-118 48.5t-118.5 -48.5t-49.5 -118z" />
<glyph unicode="&#x26;" horiz-adv-x="675" d="M10 247q0 70 36 128t94 89l-80 99q0 2 -1 3.5t-3 1.5q-3 7 -8 14q-3 3 -7 10q-3 7 -7 14q-2 5 -5 10q-3 10 -7 19q0 2 -1 3.5t-1 3.5q-3 12 -5 24q-5 24 -5 47q0 102 72.5 175t174 73t174 -72.5t72.5 -175.5q0 -14 -1 -30h-29q3 17 3 30q0 90 -64 154.5t-154.5 64.5 t-155 -64t-64.5 -155q0 -73 46 -133q2 -3 389 -478q55 63 54 145q0 15 -3 33h29q3 -17 3 -33q0 -96 -64 -167l64 -80h-37l-50 60q-68 -60 -160 -60h-51q-102 0 -175 72.5t-73 174.5zM38 247q0 -90 64.5 -154t155.5 -64h51q82 0 143 53l-293 360q-55 -27 -88 -79.5 t-33 -115.5z" />
<glyph unicode="'" horiz-adv-x="158" d="M10 905v13q14 0 14 14h-14v15v14h28v-29q0 -12 -8 -19.5t-20 -7.5z" />
<glyph unicode="(" horiz-adv-x="325" d="M10 481q0 266 159 480h36q-167 -212 -167 -480q0 -270 169 -481h-36q-160 213 -161 481z" />
<glyph unicode=")" horiz-adv-x="325" d="M10 0q167 212 167 481q1 268 -165 480h36q159 -213 159 -480q0 -268 -161 -481h-36z" />
<glyph unicode="*" horiz-adv-x="646" d="M10 717v29h224l-159 159l21 20l158 -159v226h29v-226l159 159l21 -20l-159 -159h223v-29h-223l159 -159l-21 -20l-159 160v-225h-29v225l-158 -160l-21 20l159 159h-224z" />
<glyph unicode="+" horiz-adv-x="646" d="M10 444v29h244v246h29v-246h244v-29h-244v-244h-29v244h-244z" />
<glyph unicode="," horiz-adv-x="157" d="M10 0v14v15h28v-29q0 -12 -8 -20.5t-20 -8.5v15q14 0 14 14h-14z" />
<glyph unicode="-" horiz-adv-x="544" d="M10 515v29h417v-29h-417z" />
<glyph unicode="." horiz-adv-x="158" d="M10 0v29h28v-29h-28z" />
<glyph unicode="/" horiz-adv-x="503" d="M10 0l343 961h29l-343 -961h-29z" />
<glyph unicode="0" horiz-adv-x="624" d="M10 247v466q0 102 72.5 175t175 73t175 -72.5t72.5 -175.5v-466q0 -102 -72.5 -174.5t-175 -72.5t-175 72.5t-72.5 174.5zM38 247q0 -90 64.5 -154t155 -64t154.5 64t64 154v466q0 90 -64 154.5t-154.5 64.5t-155 -64t-64.5 -155v-466z" />
<glyph unicode="1" horiz-adv-x="558" d="M10 481l389 480h38v-961h-27v927l-364 -446h-36z" />
<glyph unicode="2" horiz-adv-x="675" d="M10 0l464 538q53 67 53 150q0 101 -71.5 172.5t-173 71.5t-173 -72t-71.5 -172v-4l1 -1h-29v1v4q0 113 80.5 193t193 80t192.5 -80.5t80 -192.5q0 -93 -56 -166l-428 -493h484v-29h-546z" />
<glyph unicode="3" horiz-adv-x="675" d="M10 246q0 17 2 34h29q-3 -19 -3 -34q0 -89 64.5 -154t155.5 -65h51q90 0 154 65t64 154.5t-64 154.5t-154 65v27q90 0 154 64t64 154.5t-64 155.5t-154 65h-51q-90 0 -155 -65t-65 -155q0 -14 3 -31h-29q-2 17 -2 31q0 102 72.5 174.5t175.5 72.5h51q102 0 174.5 -72.5 t72.5 -174.5q0 -79 -46 -142.5t-119 -89.5q73 -26 119 -90t46 -144q0 -101 -72.5 -173.5t-174.5 -72.5h-51q-102 0 -175 72.5t-73 173.5z" />
<glyph unicode="4" horiz-adv-x="672" d="M10 481l389 478h36v-449h116v-29h-116v-481h-29v481h-396zM70 510h336v413z" />
<glyph unicode="5" horiz-adv-x="675" d="M10 273h28q0 -101 71.5 -172.5t173 -71.5t173 71.5t71.5 172.5t-71.5 172.5t-172.5 71.5h-273v444h546v-29h-518v-386h245q113 0 193 -80t80 -193t-80 -193t-192.5 -80t-193 80t-80.5 193z" />
<glyph unicode="6" horiz-adv-x="675" d="M10 273q0 90 55 164q14 17 19 22l435 502h37l-377 -435q49 20 104 20q113 0 193 -80t80 -193t-80 -193t-192.5 -80t-193 80t-80.5 193zM38 273q0 -101 71.5 -172.5t173 -71.5t173 71.5t71.5 172.5t-71.5 172.5t-172.5 71.5q-104 0 -177 -75l-16 -19q-53 -67 -52 -150z " />
<glyph unicode="7" horiz-adv-x="674" d="M10 0l497 932h-497v29h545l-512 -961h-33z" />
<glyph unicode="8" horiz-adv-x="675" d="M10 247q0 79 46 143t118 90q-72 26 -118 89.5t-46 143.5q0 102 72.5 175t175.5 73h51q102 0 174.5 -72.5t72.5 -175.5q0 -80 -46 -143.5t-119 -89.5q73 -26 119 -90t46 -143q0 -102 -72.5 -174.5t-174.5 -72.5h-51q-102 0 -175 72.5t-73 174.5zM38 247.5 q0 -90.5 64.5 -154.5t155.5 -64h51q90 0 154 64t64 154.5t-64 154.5t-154 64h-51q-90 0 -155 -64t-65 -154.5zM38 713.5q0 -90.5 64.5 -154.5t155.5 -64h51q90 0 154 64t64 154.5t-64 154.5t-154 64h-51q-90 0 -155 -64t-65 -154.5z" />
<glyph unicode="9" horiz-adv-x="675" d="M10 0l377 435q-51 -20 -104 -20q-113 0 -193 79t-80 192.5t80.5 194t193 80.5t192.5 -80t80 -193q0 -92 -56 -166q-14 -15 -19 -22l-433 -500h-38zM38 686.5q0 -101.5 71.5 -173t173.5 -71.5q104 0 176 77l15 17q53 67 53 152q0 101 -71.5 172.5t-173 71.5t-173 -72 t-71.5 -173.5z" />
<glyph unicode=":" horiz-adv-x="157" d="M10 0v29h28v-29h-28zM10 481v29h28v-29h-28z" />
<glyph unicode=";" horiz-adv-x="160" d="M10 481v29h28v-29h-28zM12 0v14v15h29v-29q0 -12 -8.5 -20.5t-20.5 -8.5v15q14 0 14 14h-14z" />
<glyph unicode="&#x3c;" horiz-adv-x="558" d="M10 480l391 481h38l-393 -481l393 -480h-38z" />
<glyph unicode="=" horiz-adv-x="648" d="M10 386v27h517v-27h-517zM10 527v29h517v-29h-517z" />
<glyph unicode="&#x3e;" horiz-adv-x="558" d="M10 0l391 481l-391 480h36l393 -480l-393 -481h-36z" />
<glyph unicode="?" horiz-adv-x="675" d="M10 688q0 113 80.5 193t193 80t192.5 -80t80 -193q0 -109 -75 -187.5t-184 -85.5v-272h-29v301h15q101 0 172.5 71.5t71.5 172t-71.5 172.5t-173 72t-173 -72t-71.5 -172h-28zM268 0v29h29v-29h-29z" />
<glyph unicode="@" horiz-adv-x="1472" d="M10 353.5q0 182.5 89.5 337t244 244t337.5 89.5t337 -89.5t244.5 -244t90.5 -337.5q0 -193 -104 -356q-9 -14 -10 -17q-29 -38 -73 -48q-15 -5 -31 -5q-61 0 -101 49q-29 36 -29 80v157q-41 -96 -129 -154.5t-195 -58.5q-145 0 -249 103.5t-104 250t104 250t249 103.5 q108 0 195.5 -59t128.5 -156v218h29v-357v-215v-82q0 -41 30 -70.5t71 -29.5q49 0 80 39l10 15q20 34 38 69q61 130 61 274q0 174 -86 322.5t-234.5 235t-322.5 86.5t-322.5 -86.5t-234.5 -235t-86 -322.5t86 -322.5t234.5 -234.5t322.5 -86q147 0 280 65h61 q-159 -94 -341 -94q-183 0 -337.5 90.5t-244 245t-89.5 337zM357 353q0 -135 94.5 -229.5t229.5 -94.5t229.5 94.5t94.5 229.5t-94.5 230t-229.5 95t-229.5 -95t-94.5 -230z" />
<glyph unicode="A" horiz-adv-x="911" d="M10 0v568q0 162 114.5 277.5t275.5 115.5t276.5 -115.5t115.5 -277.5v-568h-29v340h-725v-340h-28zM38 367h725v201q0 150 -106 257t-256 107t-256.5 -106.5t-106.5 -257.5v-201z" />
<glyph unicode="B" horiz-adv-x="873" d="M10 0v961h389h2q97 0 167 -70t70 -167q0 -67 -34 -122.5t-92 -86.5q102 -7 172 -81t70 -176q0 -106 -76 -182t-181 -76h-487zM38 29h459q94 0 161 67.5t67 162t-67 162t-161 67.5h-459v-459zM38 515h366q85 2 145 62.5t60 146.5q0 85 -61.5 146.5t-146.5 61.5h-2h-361 v-417z" />
<glyph unicode="C" horiz-adv-x="1046" d="M10 480.5q0 198.5 141 339.5t339 141q143 0 261 -77t176 -203h-33q-56 113 -164.5 182t-239.5 69q-186 0 -319 -132.5t-133 -319t133 -319t319 -132.5q131 0 239.5 69.5t164.5 183.5h33q-58 -126 -176 -204t-261 -78q-198 0 -339 141t-141 339.5z" />
<glyph unicode="D" horiz-adv-x="873" d="M10 0v961h265q96 0 184 -38q39 -12 72 -37q48 -31 89 -72q134 -139 134 -331q0 -68 -17 -131q-7 -24 -15 -48q-38 -96 -112 -168.5t-171 -106.5q-77 -27 -159 -29h-68h-136h-66zM38 29h247q147 3 264 93t158 228q7 21 10 41q8 40 8 80v9q0 150 -88 271q-19 24 -41 46 q-133 135 -321 135h-237v-903z" />
<glyph unicode="E" horiz-adv-x="911" d="M10 0v959h782v-27h-754v-437h754v-29h-754v-437h754v-29h-782z" />
<glyph unicode="F" horiz-adv-x="911" d="M10 0v959h782v-27h-754v-437h363v-29h-363v-466h-28z" />
<glyph unicode="G" horiz-adv-x="1088" d="M10 480q0 198 141 338.5t339 140.5q142 0 259.5 -76.5t175.5 -201.5h-32q-56 113 -164.5 182t-238.5 69q-188 0 -320 -133t-132 -319t132 -318.5t320 -132.5q179 0 308.5 123t141.5 300h-450v29h479v-1q0 -198 -140.5 -339t-338.5 -141t-339 141t-141 339z" />
<glyph unicode="H" horiz-adv-x="911" d="M10 0v961h28v-466h725v466h29v-961h-29v466h-725v-466h-28z" />
<glyph unicode="I" horiz-adv-x="911" d="M10 0v29h376v903h-376v27h782v-27h-377v-903h377v-29h-782z" />
<glyph unicode="J" horiz-adv-x="894" d="M10 280h29q36 -111 131 -181t214 -70q150 0 256 106.5t106 255.5v570h29v-570q0 -160 -114.5 -275.5t-276.5 -115.5q-131 0 -234.5 78.5t-139.5 201.5z" />
<glyph unicode="K" horiz-adv-x="911" d="M10 0v959h28v-454l754 454v-34l-741 -445l741 -448v-34l-754 456v-454h-28z" />
<glyph unicode="L" horiz-adv-x="909" d="M10 0v961h28v-932h752v-29h-780z" />
<glyph unicode="M" horiz-adv-x="1105" d="M10 0v961h28l460 -461l459 459l29 2v-961h-29v2v918l-438 -439l-21 -20l-20 20l-440 439v-920h-28z" />
<glyph unicode="N" horiz-adv-x="955" d="M10 0v961h28l769 -917v917h28v-961h-28l-769 916v-916h-28z" />
<glyph unicode="O" horiz-adv-x="1087" d="M10 480q0 198 140 337.5t338 139.5t339 -139.5t141 -337.5t-141 -339t-339 -141t-338 141t-140 339zM38 479q0 -187 132 -318.5t318 -131.5t318.5 131.5t132.5 318.5t-132.5 318t-318.5 131t-318 -131t-132 -318z" />
<glyph unicode="P" horiz-adv-x="856" d="M10 0v952v7h483q101 0 172.5 -71.5t71.5 -172.5t-71.5 -173.5t-172.5 -72.5h-455v-469h-28zM38 498h455q89 0 152 63.5t63 153t-63 152.5t-152 63h-455v-432z" />
<glyph unicode="Q" horiz-adv-x="1087" d="M10 480q0 198 140 337.5t338 139.5t339 -139.5t141 -337.5q0 -191 -132 -330l132 -130v-20l-2 -2h-17l-133 132q-138 -130 -328 -130q-198 0 -338 141t-140 339zM38 479q0 -187 132 -318.5t318 -131.5q177 0 309 121l-319 319l20 19l318 -317q123 130 123 309 q0 186 -132.5 317t-318.5 131t-318 -131t-132 -318z" />
<glyph unicode="R" horiz-adv-x="858" d="M10 0v952v7h483q101 0 172.5 -71.5t71.5 -173t-71.5 -173.5t-172.5 -72h-186l430 -449v-20h-20l-449 469h-230v-469h-28zM38 498h455q89 0 152 63.5t63 153t-63 152.5t-152 63h-455v-432z" />
<glyph unicode="S" horiz-adv-x="856" d="M10 0v29h471h2q94 0 159.5 66.5t65.5 159.5t-65.5 159.5t-159.5 66.5h-234q-99 0 -169 70t-70 170t70 170t169 70h488v-29h-488q-87 0 -149 -61.5t-62 -149.5t62 -149.5t149 -61.5h234q106 0 180 -75t74 -180t-74 -180t-180 -75h-2h-471z" />
<glyph unicode="T" horiz-adv-x="911" d="M10 932v29h782v-29h-377v-932h-29v932h-376z" />
<glyph unicode="U" horiz-adv-x="911" d="M10 391v570h28v-570q0 -150 106.5 -256t256.5 -106t256 106t106 256v570h29v-570q0 -162 -115.5 -276.5t-276.5 -114.5t-275.5 114.5t-114.5 276.5z" />
<glyph unicode="V" horiz-adv-x="914" d="M10 961h31l360 -922l364 922h30l-379 -961h-30z" />
<glyph unicode="W" horiz-adv-x="1293" d="M10 961h31l360 -922l174 442l-188 480h31l173 -440l174 440h30l-189 -480l174 -442l362 922h30l-377 -961h-30l-174 442l-175 -442h-30z" />
<glyph unicode="X" horiz-adv-x="950" d="M10 0l391 481l-391 480h38l372 -458l372 458h37l-390 -480l390 -481h-35l-374 457l-374 -457h-36z" />
<glyph unicode="Y" horiz-adv-x="948" d="M10 0l391 481l-391 480h38l372 -458l372 458h37l-783 -961h-36z" />
<glyph unicode="Z" horiz-adv-x="950" d="M10 0l758 932h-758v29h819l-759 -932h759v-29h-819z" />
<glyph unicode="[" horiz-adv-x="244" d="M10 0v961h115v-29h-87v-903h87v-29h-115z" />
<glyph unicode="\" horiz-adv-x="503" d="M10 961h29l343 -961h-29z" />
<glyph unicode="]" horiz-adv-x="245" d="M10 0v29h86v903h-86v29h115v-961h-115z" />
<glyph unicode="_" horiz-adv-x="788" d="M10 0v29h659v-29h-659z" />
<glyph unicode="a" d="M10 352.5q0 145.5 103.5 250t250.5 104.5q108 0 195.5 -60t128.5 -155v215h29v-707h-29v213q-41 -96 -129 -154.5t-195 -58.5q-147 0 -250.5 103.5t-103.5 249zM38 352q0 -134 95.5 -228.5t229.5 -94.5t229.5 94.5t95.5 228.5t-95.5 230t-229.5 96t-229.5 -96t-95.5 -230 z" />
<glyph unicode="b" d="M10 0v959h28v-467q43 97 130.5 156t195.5 59q145 0 249 -103.5t104 -250t-104 -250t-249 -103.5q-108 0 -196 59t-130 154v-213h-28zM38 353q0 -135 95.5 -229.5t229.5 -94.5t229.5 94.5t95.5 229.5t-95.5 230t-229.5 95t-229.5 -95t-95.5 -230z" />
<glyph unicode="c" horiz-adv-x="778" d="M5 353.5q0 146.5 104 250t249 103.5q114 0 206.5 -67t128.5 -172h-31q-34 94 -117.5 152t-186.5 58q-133 0 -228.5 -95t-95.5 -230t95.5 -229.5t228.5 -94.5q102 0 186 58t118 152h31q-36 -106 -128 -172.5t-207 -66.5q-145 0 -249 103.5t-104 250z" />
<glyph unicode="d" d="M10 352.5q0 145.5 103.5 250t250.5 104.5q108 0 195.5 -60t128.5 -155v467h29v-959h-29v213q-41 -96 -129 -154.5t-195 -58.5q-147 0 -250.5 103.5t-103.5 249zM38 352q0 -134 95.5 -228.5t229.5 -94.5t229.5 94.5t95.5 228.5t-95.5 230t-229.5 96t-229.5 -96t-95.5 -230 z" />
<glyph unicode="e" d="M10 353.5q0 146.5 103.5 250t249.5 103.5t250 -103.5t104 -250.5h-29h-650q0 -135 95.5 -229.5t230.5 -94.5q102 0 184.5 58t118.5 152h29q-36 -106 -127 -172.5t-205 -66.5q-147 0 -250.5 103.5t-103.5 250zM39 382h647q-10 125 -103 210.5t-219.5 85.5t-219.5 -85.5 t-105 -210.5z" />
<glyph unicode="f" horiz-adv-x="442" d="M10 0v606q0 143 101 246.5t244 106.5v-29q-131 -3 -224 -98t-93 -226v-140v-84h145v-29h-145v-353h-28z" />
<glyph unicode="g" d="M10 -140h28q0 -133 95.5 -228.5t229.5 -95.5t229.5 95.5t95.5 228.5v403q-41 -96 -129 -155t-195 -59q-147 0 -250.5 103.5t-103.5 250.5t103.5 250t250.5 103q108 0 195.5 -59t128.5 -156v215h29v-896q0 -145 -104 -249t-250 -104t-249.5 104t-103.5 249zM38 403 q0 -135 95.5 -229.5t229.5 -94.5t229.5 94.5t95.5 229.5t-95.5 229.5t-229.5 94.5t-229.5 -94.5t-95.5 -229.5z" />
<glyph unicode="h" d="M10 0v959h28v-467q43 96 130.5 155.5t195.5 59.5q145 0 249 -104.5t104 -249.5v-353h-29v353q0 133 -95.5 229t-229.5 96t-229.5 -96t-95.5 -229v-353h-28z" />
<glyph unicode="i" horiz-adv-x="167" d="M53 0v693h27v-693h-27zM53 916v28h27v-28h-27z" />
<glyph unicode="j" horiz-adv-x="448" d="M10 -526q133 0 229 95.5t96 229.5v896h29v-896q0 -145 -104.5 -248.5t-249.5 -103.5v27zM335 920v27h29v-27h-29z" />
<glyph unicode="k" d="M10 0v959h28v-483l679 236v-31l-661 -229l659 -452h-49l-628 430v-430h-28z" />
<glyph unicode="l" horiz-adv-x="448" d="M10 353v606h28v-606q0 -135 95.5 -229.5t230.5 -94.5v-29q-147 0 -250.5 103.5t-103.5 249.5z" />
<glyph unicode="m" horiz-adv-x="1481" d="M10 0v707h28v-214q43 96 130.5 155t195.5 59q118 0 211.5 -72t125.5 -183q32 111 126.5 183t213.5 72q145 0 248 -103.5t105 -248.5v-355h-29v353q0 135 -95.5 230t-229.5 95t-228.5 -95t-94.5 -230v-353h-29v353q0 135 -95.5 230t-229.5 95t-229.5 -95t-95.5 -230v-353 h-28z" />
<glyph unicode="n" d="M10 0v353v354h28v-215q43 96 130.5 155.5t195.5 59.5q145 0 249 -104.5t104 -249.5v-353h-29v353q0 133 -95.5 229t-229.5 96t-229.5 -96t-95.5 -229v-353h-28z" />
<glyph unicode="o" d="M10 353.5q0 146.5 103.5 250t249.5 103.5t250 -103.5t104 -250t-104 -250t-250 -103.5t-249.5 103.5t-103.5 250zM38 353q0 -135 95.5 -229.5t229.5 -94.5t229.5 94.5t95.5 229.5t-95.5 230t-229.5 95t-229.5 -95t-95.5 -230z" />
<glyph unicode="p" d="M10 -539v1246h28v-215q43 97 130.5 156t195.5 59q145 0 249 -103.5t104 -250t-104 -250t-249 -103.5q-108 0 -196 59t-130 154v-752h-28zM38 353q0 -135 95.5 -229.5t229.5 -94.5t229.5 94.5t95.5 229.5t-95.5 230t-229.5 95t-229.5 -95t-95.5 -230z" />
<glyph unicode="q" d="M10 353.5q0 146.5 103.5 250t250.5 103.5q108 0 195.5 -59t128.5 -156v215h29v-1246h-29v752q-41 -96 -129 -154.5t-195 -58.5q-147 0 -250.5 103.5t-103.5 250zM38 353q0 -135 95.5 -229.5t229.5 -94.5t229.5 94.5t95.5 229.5t-95.5 230t-229.5 95t-229.5 -95 t-95.5 -230z" />
<glyph unicode="r" horiz-adv-x="448" d="M10 0v707h28v-215q43 96 130.5 155.5t195.5 59.5v-29q-135 0 -230.5 -96t-95.5 -229v-353h-28z" />
<glyph unicode="s" horiz-adv-x="887" d="M10 525.5q0 76.5 54 130.5t131 54h607v-27h-607q-65 0 -111 -46t-46 -112t46 -112t111 -46h423q77 0 130.5 -54t53.5 -129.5t-53.5 -129.5t-130.5 -54h-606v29h606q65 0 110 45t45 109t-45 110.5t-110 46.5h-423q-77 0 -131 54.5t-54 131z" />
<glyph unicode="t" horiz-adv-x="448" d="M10 355v606h28v-253h326v-29h-326v-324q0 -135 95.5 -230.5t230.5 -95.5v-27q-147 0 -250.5 103t-103.5 250z" />
<glyph unicode="u" d="M10 353v354h28v-354q0 -135 95.5 -229.5t229.5 -94.5t229.5 94.5t95.5 229.5v354h29v-354q0 -147 -104 -250t-250 -103t-249.5 103.5t-103.5 249.5z" />
<glyph unicode="v" horiz-adv-x="803" d="M10 707h31l324 -673l323 673h32l-339 -707h-16h-1h-14z" />
<glyph unicode="w" horiz-adv-x="1153" d="M10 707h31l324 -673l157 328l-165 345h32l149 -311l150 311h32l-165 -345l157 -328l324 673h31l-338 -707h-16h-1h-16l-158 329l-157 -329h-16h-1h-14z" />
<glyph unicode="x" horiz-adv-x="814" d="M10 0l338 353l-338 354h39l320 -333l319 333h39l-340 -354l340 -353h-39l-319 333l-320 -333h-39z" />
<glyph unicode="y" horiz-adv-x="812" d="M10 0l338 353l-338 354h39l320 -333l319 333h39l-678 -707h-39z" />
<glyph unicode="z" horiz-adv-x="812" d="M10 0l650 678h-650v29h717l-650 -678h648v-29h-715z" />
<glyph unicode="&#xa5;" horiz-adv-x="948" d="M10 961h38l358 -440v440h27v-440l359 440h37l-392 -483h328v-27h-332v-115h332v-29h-332v-307h-27v307h-331v29h331v115h-331v27h328z" />
<glyph unicode="&#xab;" horiz-adv-x="503" d="M10 471l214 263v-45l-178 -218l178 -217v-46zM169 471l215 263v-45l-177 -218l177 -217v-46z" />
<glyph unicode="&#xad;" horiz-adv-x="544" d="M10 515v29h417v-29h-417z" />
<glyph unicode="&#xbb;" horiz-adv-x="503" d="M10 208v45l178 218l-178 218v45l214 -263zM169 208v45l177 218l-177 218v45l215 -263z" />
<glyph unicode="&#xc0;" horiz-adv-x="911" d="M10 0v568q0 162 114.5 277.5t275.5 115.5t276.5 -115.5t115.5 -277.5v-568h-29v340h-725v-340h-28zM38 367h725v201q0 150 -106 257t-256 107t-256.5 -106.5t-106.5 -257.5v-201zM207 1195h37l178 -219h-38z" />
<glyph unicode="&#xc1;" horiz-adv-x="911" d="M10 0v568q0 162 114.5 277.5t275.5 115.5t276.5 -115.5t115.5 -277.5v-568h-29v340h-725v-340h-28zM38 367h725v201q0 150 -106 257t-256 107t-256.5 -106.5t-106.5 -257.5v-201zM384 976l177 219h38l-177 -219h-38z" />
<glyph unicode="&#xc2;" horiz-adv-x="911" d="M10 0v568q0 162 114.5 277.5t275.5 115.5t276.5 -115.5t115.5 -277.5v-568h-29v340h-725v-340h-28zM38 367h725v201q0 150 -106 257t-256 107t-256.5 -106.5t-106.5 -257.5v-201zM138 978l263 215l263 -215h-46l-217 177l-218 -177h-45z" />
<glyph unicode="&#xc4;" horiz-adv-x="911" d="M10 0v568q0 162 114.5 277.5t275.5 115.5t276.5 -115.5t115.5 -277.5v-568h-29v340h-725v-340h-28zM38 367h725v201q0 150 -106 257t-256 107t-256.5 -106.5t-106.5 -257.5v-201zM236 1069.5q0 21.5 20 21.5t20 -21.5t-20 -21.5t-20 21.5zM531 1069.5q0 21.5 20.5 21.5 t20.5 -21.5t-20.5 -21.5t-20.5 21.5z" />
<glyph unicode="&#xc5;" horiz-adv-x="911" d="M10 0v568q0 162 114.5 277.5t275.5 115.5t276.5 -115.5t115.5 -277.5v-568h-29v340h-725v-340h-28zM38 367h725v201q0 150 -106 257t-256 107t-256.5 -106.5t-106.5 -257.5v-201zM246 1131q0 64 45 109t109 45t109.5 -45t45.5 -109t-45.5 -109.5t-109.5 -45.5t-109 45.5 t-45 109.5zM275 1131q0 -52 36.5 -89t88.5 -37t89 37t37 89t-37 89.5t-89 37.5t-88.5 -37.5t-36.5 -89.5z" />
<glyph unicode="&#xc8;" horiz-adv-x="911" d="M10 0v959h782v-27h-754v-437h754v-29h-754v-437h754v-29h-782zM207 1195h37l178 -219h-38z" />
<glyph unicode="&#xc9;" horiz-adv-x="911" d="M10 0v959h782v-27h-754v-437h754v-29h-754v-437h754v-29h-782zM384 976l177 219h38l-177 -219h-38z" />
<glyph unicode="&#xca;" horiz-adv-x="911" d="M10 0v959h782v-27h-754v-437h754v-29h-754v-437h754v-29h-782zM138 978l263 215l263 -215h-46l-217 177l-218 -177h-45z" />
<glyph unicode="&#xcb;" horiz-adv-x="911" d="M10 0v959h782v-27h-754v-437h754v-29h-754v-437h754v-29h-782zM236 997.5q0 21.5 20 21.5t20 -21.5t-20 -21.5t-20 21.5zM531 997.5q0 21.5 20.5 21.5t20.5 -21.5t-20.5 -21.5t-20.5 21.5z" />
<glyph unicode="&#xcc;" horiz-adv-x="911" d="M10 0v29h376v903h-376v27h782v-27h-377v-903h377v-29h-782zM207 1195h37l178 -219h-38z" />
<glyph unicode="&#xcd;" horiz-adv-x="911" d="M10 0v29h376v903h-376v27h782v-27h-377v-903h377v-29h-782zM384 976l177 219h38l-177 -219h-38z" />
<glyph unicode="&#xce;" horiz-adv-x="911" d="M10 0v29h376v903h-376v27h782v-27h-377v-903h377v-29h-782zM138 978l263 215l263 -215h-46l-217 177l-218 -177h-45z" />
<glyph unicode="&#xcf;" horiz-adv-x="2048" d="M10 0v29h376v903h-376v27h782v-27h-377v-903h377v-29h-782zM236 1068.5q0 20.5 20 20.5t20 -20.5t-20 -20.5t-20 20.5zM531 1068.5q0 20.5 20.5 20.5t20.5 -20.5t-20.5 -20.5t-20.5 20.5z" />
<glyph unicode="&#xd2;" horiz-adv-x="1087" d="M10 480q0 198 140 337.5t338 139.5t339 -139.5t141 -337.5t-141 -339t-339 -141t-338 141t-140 339zM38 479q0 -187 132 -318.5t318 -131.5t318.5 131.5t132.5 318.5t-132.5 318t-318.5 131t-318 -131t-132 -318zM295 1193h36l178 -218h-36z" />
<glyph unicode="&#xd3;" horiz-adv-x="1087" d="M10 480q0 198 140 337.5t338 139.5t339 -139.5t141 -337.5t-141 -339t-339 -141t-338 141t-140 339zM38 479q0 -187 132 -318.5t318 -131.5t318.5 131.5t132.5 318.5t-132.5 318t-318.5 131t-318 -131t-132 -318zM295 1193h36l178 -218h-36z" />
<glyph unicode="&#xd4;" horiz-adv-x="1087" d="M10 480q0 198 140 337.5t338 139.5t339 -139.5t141 -337.5t-141 -339t-339 -141t-338 141t-140 339zM38 479q0 -187 132 -318.5t318 -131.5t318.5 131.5t132.5 318.5t-132.5 318t-318.5 131t-318 -131t-132 -318zM225 976l263 215l263 -215h-44l-219 178l-217 -178h-46z " />
<glyph unicode="&#xd6;" horiz-adv-x="1087" d="M10 480q0 198 140 337.5t338 139.5t339 -139.5t141 -337.5t-141 -339t-339 -141t-338 141t-140 339zM38 479q0 -187 132 -318.5t318 -131.5t318.5 131.5t132.5 318.5t-132.5 318t-318.5 131t-318 -131t-132 -318zM324 1053q0 20 20.5 20t20.5 -20t-20.5 -20t-20.5 20z M618 1053q0 20 20.5 20t20.5 -20t-20.5 -20t-20.5 20z" />
<glyph unicode="&#xd7;" horiz-adv-x="515" d="M10 280l173 174l-173 172l21 21l172 -174l172 174l21 -21l-172 -172l172 -174l-21 -21l-172 174l-172 -174z" />
<glyph unicode="&#xd8;" horiz-adv-x="1087" d="M10 480q0 198 140 337.5t338 139.5q162 0 292 -99l82 101h36l-96 -119q77 -67 121.5 -161t44.5 -199q0 -198 -141 -339t-339 -141q-162 0 -290 99l-82 -102h-37l97 119q-79 68 -122.5 162t-43.5 202zM38 480q0 -101 41.5 -190t115.5 -152l566 698q-121 92 -273 92 q-186 0 -318 -131t-132 -317zM217 121q119 -92 271 -92q186 0 318.5 131.5t132.5 319.5q0 99 -41 186.5t-115 150.5z" />
<glyph unicode="&#xd9;" horiz-adv-x="911" d="M10 391v570h28v-570q0 -150 106.5 -256t256.5 -106t256 106t106 256v570h29v-570q0 -162 -115.5 -276.5t-276.5 -114.5t-275.5 114.5t-114.5 276.5zM207 1195h37l178 -219h-38z" />
<glyph unicode="&#xda;" horiz-adv-x="911" d="M10 391v570h28v-570q0 -150 106.5 -256t256.5 -106t256 106t106 256v570h29v-570q0 -162 -115.5 -276.5t-276.5 -114.5t-275.5 114.5t-114.5 276.5zM384 976l177 219h38l-177 -219h-38z" />
<glyph unicode="&#xdb;" horiz-adv-x="911" d="M10 391v570h28v-570q0 -150 106.5 -256t256.5 -106t256 106t106 256v570h29v-570q0 -162 -115.5 -276.5t-276.5 -114.5t-275.5 114.5t-114.5 276.5zM138 978l263 215l263 -215h-46l-217 177l-218 -177h-45z" />
<glyph unicode="&#xdc;" horiz-adv-x="1041" d="M10 391v570h28v-570q0 -150 106.5 -256t256.5 -106t256 106t106 256v570h29v-570q0 -162 -115.5 -276.5t-276.5 -114.5t-275.5 114.5t-114.5 276.5zM236 1079.5q0 21.5 20 21.5t20 -21.5t-20 -21.5t-20 21.5zM531 1079.5q0 21.5 20.5 21.5t20.5 -21.5t-20.5 -21.5 t-20.5 21.5z" />
<glyph unicode="&#xdf;" horiz-adv-x="665" d="M10 -2v729q2 97 71 165.5t166 68.5q99 0 168.5 -70t69.5 -167q0 -104 -77 -176q63 -39 100.5 -106t37.5 -143q0 -125 -88 -212t-211 -87v29q111 0 190.5 78.5t79.5 191.5q0 72 -36 133t-97 97q-14 9 -29 15q15 9 27 19q73 63 74 161q0 85 -60.5 146.5t-148 61.5 t-148.5 -61.5t-61 -146.5v-726h-28z" />
<glyph unicode="&#xe0;" d="M10 352.5q0 145.5 103.5 250t250.5 104.5q108 0 195.5 -60t128.5 -155v215h29v-707h-29v213q-41 -96 -129 -154.5t-195 -58.5q-147 0 -250.5 103.5t-103.5 249zM38 352q0 -134 95.5 -228.5t229.5 -94.5t229.5 94.5t95.5 228.5t-95.5 230t-229.5 96t-229.5 -96t-95.5 -230 zM166 947h37l178 -218h-38z" />
<glyph unicode="&#xe1;" d="M10 353.5q0 146.5 103.5 250t250.5 103.5q108 0 195.5 -59t128.5 -156v215h29v-707h-29v213q-41 -96 -129 -154.5t-195 -58.5q-147 0 -250.5 103.5t-103.5 250zM38 353q0 -135 95.5 -229.5t229.5 -94.5t229.5 94.5t95.5 229.5t-95.5 230t-229.5 95t-229.5 -95t-95.5 -230 zM343 730l178 217h37l-177 -217h-38z" />
<glyph unicode="&#xe2;" d="M10 352.5q0 145.5 103.5 250t250.5 104.5q108 0 195.5 -60t128.5 -155v215h29v-707h-29v213q-41 -96 -129 -154.5t-195 -58.5q-147 0 -250.5 103.5t-103.5 249zM38 352q0 -134 95.5 -228.5t229.5 -94.5t229.5 94.5t95.5 228.5t-95.5 230t-229.5 96t-229.5 -96t-95.5 -230 zM97 730l263 215l263 -215h-46l-217 178l-218 -178h-45z" />
<glyph unicode="&#xe4;" d="M10 352.5q0 145.5 103.5 250t250.5 104.5q108 0 195.5 -60t128.5 -155v215h29v-707h-29v213q-41 -96 -129 -154.5t-195 -58.5q-147 0 -250.5 103.5t-103.5 249zM38 352q0 -134 95.5 -228.5t229.5 -94.5t229.5 94.5t95.5 228.5t-95.5 230t-229.5 96t-229.5 -96t-95.5 -230 zM195 750q0 21 20.5 21t20.5 -21t-20.5 -21t-20.5 21zM490 750q0 21 20.5 21t20.5 -21t-20.5 -21t-20.5 21z" />
<glyph unicode="&#xe5;" d="M10 352.5q0 145.5 103.5 250t250.5 104.5q108 0 195.5 -60t128.5 -155v215h29v-707h-29v213q-41 -96 -129 -154.5t-195 -58.5q-147 0 -250.5 103.5t-103.5 249zM38 352q0 -134 95.5 -228.5t229.5 -94.5t229.5 94.5t95.5 228.5t-95.5 230t-229.5 96t-229.5 -96t-95.5 -230 zM205 883q0 64 45 109.5t109 45.5t109.5 -45.5t45.5 -109.5t-45.5 -109t-109.5 -45t-109 45t-45 109zM234 883q0 -52 36.5 -88.5t88.5 -36.5t89.5 36.5t37.5 88.5t-37.5 89.5t-89.5 37.5t-88.5 -37.5t-36.5 -89.5z" />
<glyph unicode="&#xe7;" horiz-adv-x="781" d="M10 353q0 145 103.5 249.5t250.5 104.5q114 0 205 -67.5t127 -171.5h-29q-36 92 -118.5 151t-184.5 59q-135 0 -230.5 -96t-95.5 -230t95.5 -229.5t230.5 -95.5q102 0 184.5 59t118.5 153h29q-34 -102 -122 -169t-199 -70v-56q68 -5 115.5 -55.5t47.5 -120.5 q0 -72 -51.5 -124t-124.5 -52q-5 0 -14 2v27h14q61 0 104 43.5t43 104t-43 104t-104 43.5q-7 0 -14 -1v85q-142 5 -240 107.5t-98 245.5z" />
<glyph unicode="&#xe8;" d="M10 353.5q0 146.5 103.5 250t249.5 103.5t250 -103.5t104 -250.5h-29h-650q0 -135 95.5 -229.5t230.5 -94.5q102 0 184.5 58t118.5 152h29q-36 -106 -127 -172.5t-205 -66.5q-147 0 -250.5 103.5t-103.5 250zM39 382h647q-10 125 -103 210.5t-219.5 85.5t-219.5 -85.5 t-105 -210.5zM166 947h37l178 -217h-38z" />
<glyph unicode="&#xe9;" d="M10 353.5q0 146.5 103.5 250t249.5 103.5t250 -103.5t104 -250.5h-29h-650q0 -135 95.5 -229.5t230.5 -94.5q102 0 184.5 58t118.5 152h29q-36 -106 -127 -172.5t-205 -66.5q-147 0 -250.5 103.5t-103.5 250zM39 382h647q-10 125 -103 210.5t-219.5 85.5t-219.5 -85.5 t-105 -210.5zM343 730l178 217h37l-177 -217h-38z" />
<glyph unicode="&#xea;" d="M10 353.5q0 146.5 103.5 250t249.5 103.5t250 -103.5t104 -250.5h-29h-650q0 -135 95.5 -229.5t230.5 -94.5q102 0 184.5 58t118.5 152h29q-36 -106 -127 -172.5t-205 -66.5q-147 0 -250.5 103.5t-103.5 250zM39 382h647q-10 125 -103 210.5t-219.5 85.5t-219.5 -85.5 t-105 -210.5zM97 732l263 213l263 -213h-46l-217 176l-218 -176h-45z" />
<glyph unicode="&#xeb;" d="M10 353.5q0 146.5 103.5 250t249.5 103.5t250 -103.5t104 -250.5h-29h-650q0 -135 95.5 -229.5t230.5 -94.5q102 0 184.5 58t118.5 152h29q-36 -106 -127 -172.5t-205 -66.5q-147 0 -250.5 103.5t-103.5 250zM39 382h647q-10 125 -103 210.5t-219.5 85.5t-219.5 -85.5 t-105 -210.5zM195 750.5q0 20.5 20.5 20.5t20.5 -20.5t-20.5 -20.5t-20.5 20.5zM490 750.5q0 20.5 20.5 20.5t20.5 -20.5t-20.5 -20.5t-20.5 20.5z" />
<glyph unicode="&#xec;" horiz-adv-x="505" d="M145 934h36l177 -219h-35zM324 0v693h29v-693h-29z" />
<glyph unicode="&#xed;" horiz-adv-x="377" d="M43 715l177 219h38l-178 -219h-37zM44 0v693h29v-693h-29z" />
<glyph unicode="&#xee;" horiz-adv-x="561" d="M17 717l263 215l263 -215h-45l-218 177l-219 -177h-44zM266 0v693h28v-693h-28z" />
<glyph unicode="&#xef;" horiz-adv-x="506" d="M85 735.5q0 20.5 21.5 20.5t21.5 -20.5t-21.5 -20.5t-21.5 20.5zM237 0v693h28v-693h-28zM381 735.5q0 20.5 20.5 20.5t20.5 -20.5t-20.5 -20.5t-20.5 20.5z" />
<glyph unicode="&#xf1;" d="M10 0v353v354h28v-215q43 96 130.5 155.5t195.5 59.5q145 0 249 -104.5t104 -249.5v-353h-29v353q0 133 -95.5 229t-229.5 96t-229.5 -96t-95.5 -229v-353h-28zM131 730q12 39 40 69q32 32 78 41.5t87 -7.5q29 -12 53 -34q0 -2 1 -2t1 -2v2q38 -38 89.5 -38t89.5 38 q19 19 29 46h29q-10 -38 -39 -66q-32 -32 -77.5 -42t-86.5 6q-31 12 -55 36v1h-1q-36 36 -88 36t-90 -36q-20 -20 -29 -48h-31z" />
<glyph unicode="&#xf2;" d="M10 353.5q0 146.5 103.5 250t249.5 103.5t250 -103.5t104 -250t-104 -250t-250 -103.5t-249.5 103.5t-103.5 250zM38 353q0 -135 95.5 -229.5t229.5 -94.5t229.5 94.5t95.5 229.5t-95.5 230t-229.5 95t-229.5 -95t-95.5 -230zM166 947h37l178 -217h-38z" />
<glyph unicode="&#xf3;" d="M10 353.5q0 146.5 103.5 250t249.5 103.5t250 -103.5t104 -250t-104 -250t-250 -103.5t-249.5 103.5t-103.5 250zM38 353q0 -135 95.5 -229.5t229.5 -94.5t229.5 94.5t95.5 229.5t-95.5 230t-229.5 95t-229.5 -95t-95.5 -230zM343 730l178 217h37l-177 -217h-38z" />
<glyph unicode="&#xf4;" d="M10 353.5q0 146.5 103.5 250t249.5 103.5t250 -103.5t104 -250t-104 -250t-250 -103.5t-249.5 103.5t-103.5 250zM38 353q0 -135 95.5 -229.5t229.5 -94.5t229.5 94.5t95.5 229.5t-95.5 230t-229.5 95t-229.5 -95t-95.5 -230zM97 732l263 213l263 -213h-46l-217 176 l-218 -176h-45z" />
<glyph unicode="&#xf6;" d="M10 353.5q0 146.5 103.5 250t249.5 103.5t250 -103.5t104 -250t-104 -250t-250 -103.5t-249.5 103.5t-103.5 250zM38 353q0 -135 95.5 -229.5t229.5 -94.5t229.5 94.5t95.5 229.5t-95.5 230t-229.5 95t-229.5 -95t-95.5 -230zM195 803.5q0 20.5 20.5 20.5t20.5 -20.5 t-20.5 -20.5t-20.5 20.5zM490 803.5q0 20.5 20.5 20.5t20.5 -20.5t-20.5 -20.5t-20.5 20.5z" />
<glyph unicode="&#xf8;" horiz-adv-x="836" d="M10 353q0 147 103.5 250.5t250.5 103.5q114 0 206 -67l58 70h38l-74 -89q125 -106 125 -268q0 -147 -104 -250t-249 -103q-121 0 -217 75l-62 -75h-36l76 92q-114 106 -115 261zM38 353q0 -142 105 -239l408 504q-84 60 -187 60q-135 0 -230.5 -95t-95.5 -230zM164 96 q89 -67 200 -67q133 0 228.5 94.5t95.5 229.5q0 148 -113 246z" />
<glyph unicode="&#xf9;" d="M10 353v354h28v-354q0 -135 95.5 -229.5t229.5 -94.5t229.5 94.5t95.5 229.5v354h29v-354q0 -147 -104 -250t-250 -103t-249.5 103.5t-103.5 249.5zM166 947h37l178 -217h-38z" />
<glyph unicode="&#xfa;" d="M10 353v354h28v-354q0 -135 95.5 -229.5t229.5 -94.5t229.5 94.5t95.5 229.5v354h29v-354q0 -147 -104 -250t-250 -103t-249.5 103.5t-103.5 249.5zM343 730l178 217h37l-177 -217h-38z" />
<glyph unicode="&#xfb;" d="M10 353v354h28v-354q0 -135 95.5 -229.5t229.5 -94.5t229.5 94.5t95.5 229.5v354h29v-354q0 -147 -104 -250t-250 -103t-249.5 103.5t-103.5 249.5zM97 732l263 213l263 -213h-46l-217 176l-218 -176h-45z" />
<glyph unicode="&#xfc;" d="M10 353v354h28v-354q0 -135 95.5 -229.5t229.5 -94.5t229.5 94.5t95.5 229.5v354h29v-354q0 -147 -104 -250t-250 -103t-249.5 103.5t-103.5 249.5zM195 810.5q0 20.5 20.5 20.5t20.5 -20.5t-20.5 -20.5t-20.5 20.5zM490 810.5q0 20.5 20.5 20.5t20.5 -20.5t-20.5 -20.5 t-20.5 20.5z" />
<glyph unicode="&#x152;" horiz-adv-x="1974" d="M10 481q0 198 140 338t338 140q166 0 295.5 -101.5t168.5 -258.5q41 157 170 259.5t296 102.5q142 0 259.5 -77t175.5 -203h-30q-56 113 -165.5 182t-239.5 69q-183 0 -313 -126.5t-137 -307.5v-1v-2h399v-29h-399v-1v-2q7 -181 137.5 -307.5t312.5 -126.5 q131 0 239.5 69t165.5 184h32q-58 -126 -175.5 -204t-261.5 -78q-167 0 -296.5 102.5t-169.5 259.5q-39 -155 -168.5 -257.5t-295.5 -102.5q-198 0 -338 140.5t-140 338.5zM38 481q0 -186 132 -318t318 -132q181 0 312.5 126t138.5 306v17v18q-7 181 -137.5 307.5 t-313.5 126.5q-186 0 -318 -132.5t-132 -318.5z" />
<glyph unicode="&#x153;" horiz-adv-x="1520" d="M10 353.5q0 146.5 103.5 250t250.5 103.5q121 0 216.5 -75.5t124.5 -191.5q29 116 124.5 191.5t218.5 75.5q147 0 250 -103.5t103 -250.5h-29h-648q0 -135 94.5 -229.5t229.5 -94.5q102 0 185 58t119 152h30q-36 -106 -128 -172.5t-206 -66.5q-123 0 -218.5 75 t-124.5 191q-29 -116 -124.5 -191t-216.5 -75q-147 0 -250.5 103.5t-103.5 250zM38 353q0 -135 95.5 -229.5t229.5 -94.5t229.5 94.5t95.5 229.5t-95.5 230t-229.5 95t-229.5 -95t-95.5 -230zM725 382h645q-10 125 -103 210.5t-219 85.5t-219 -85.5t-104 -210.5z" />
<glyph unicode="&#x2000;" horiz-adv-x="682" />
<glyph unicode="&#x2001;" horiz-adv-x="1365" />
<glyph unicode="&#x2002;" horiz-adv-x="682" />
<glyph unicode="&#x2003;" horiz-adv-x="1365" />
<glyph unicode="&#x2004;" horiz-adv-x="455" />
<glyph unicode="&#x2005;" horiz-adv-x="341" />
<glyph unicode="&#x2006;" horiz-adv-x="227" />
<glyph unicode="&#x2007;" horiz-adv-x="227" />
<glyph unicode="&#x2008;" horiz-adv-x="170" />
<glyph unicode="&#x2009;" horiz-adv-x="273" />
<glyph unicode="&#x200a;" horiz-adv-x="75" />
<glyph unicode="&#x2010;" horiz-adv-x="544" d="M10 515v29h417v-29h-417z" />
<glyph unicode="&#x2011;" horiz-adv-x="544" d="M10 515v29h417v-29h-417z" />
<glyph unicode="&#x2012;" horiz-adv-x="544" d="M10 515v29h417v-29h-417z" />
<glyph unicode="&#x2013;" horiz-adv-x="1151" d="M10 515v29h1024v-29h-1024z" />
<glyph unicode="&#x2014;" horiz-adv-x="2175" d="M10 515v29h2048v-29h-2048z" />
<glyph unicode="&#x202f;" horiz-adv-x="273" />
<glyph unicode="&#x205f;" horiz-adv-x="341" />
<glyph unicode="&#x25fc;" horiz-adv-x="708" d="M0 0v708h708v-708h-708z" />
</font>
</defs>
</svg>
